<svg xmlns="http://www.w3.org/2000/svg" version="1.1" xmlns:xlink="http://www.w3.org/1999/xlink" xmlns:svgjs="http://svgjs.dev/svgjs" width="1000" height="494" viewBox="0 0 1000 494"><g transform="matrix(1,0,0,1,-0.6060606060606233,-0.4577938020004808)"><svg viewBox="0 0 396 196" data-background-color="#ffffff" preserveAspectRatio="xMidYMid meet" height="494" width="1000" xmlns="http://www.w3.org/2000/svg" xmlns:xlink="http://www.w3.org/1999/xlink"><g id="tight-bounds" transform="matrix(1,0,0,1,0.2400000000000091,0.1816347878382487)"><svg viewBox="0 0 395.52 195.6367304243235" height="195.6367304243235" width="395.52"><g><svg viewBox="0 0 395.52 195.6367304243235" height="195.6367304243235" width="395.52"><g transform="matrix(1,0,0,1,0,146.72847707505628)"><svg viewBox="0 0 395.52 48.90825334926724" height="48.90825334926724" width="395.52"><g id="textblocktransform"><svg viewBox="0 0 395.52 48.90825334926724" height="48.90825334926724" width="395.52" id="textblock"><g><svg viewBox="0 0 395.52 48.90825334926724" height="48.90825334926724" width="395.52"><g transform="matrix(1,0,0,1,0,0)"><svg width="395.52" viewBox="3.1 -36.75757568307199 305.71999999999997 37.80757568307199" height="48.90825334926724" data-palette-color="#398378"><g class="wordmark-text-0" data-fill-palette-color="primary" id="text-0"><path d="M24.45-32.55Q24.65-32.3 25.58-31.2 26.5-30.1 27-28.75 27.5-27.4 27.5-25.85L27.5-25.85Q27.5-21.7 25.08-19.2 22.65-16.7 18.95-15.4L18.95-15.4Q14.95-14.05 10.4-14L10.4-14 10.3-8.55 10.2-1.5Q10.2 0 9 0L9 0Q8.7 0 8.4-0.05 8.1-0.1 7.9-0.1L7.9-0.1 6 0 4.05 0.1Q3.5 0.1 3.3-0.3 3.1-0.7 3.1-1.5L3.1-1.5Q3.1-1.75 3.13-2.45 3.15-3.15 3.15-4.55L3.15-4.55Q3.3-12.2 3.3-12.3L3.3-12.3 3.3-26Q3.3-28 3.5-30.35L3.5-30.35 3.7-33.65Q3.7-34.45 3.88-34.58 4.05-34.7 4.65-34.7L4.65-34.7Q5.05-34.7 7.05-34.9L7.05-34.9Q9.65-35.2 11.2-35.2L11.2-35.2Q15.4-35.2 17.63-35.08 19.85-34.95 21.63-34.38 23.4-33.8 24.45-32.55L24.45-32.55ZM20.25-18Q22.05-18.85 22.9-20.28 23.75-21.7 23.75-24.1L23.75-24.1Q23.75-26 23.35-28.05L23.35-28.05Q22.95-30.1 21.1-31.2 19.25-32.3 16.65-32.65L16.65-32.65Q15.3-32.85 13.45-32.85L13.45-32.85Q12.65-32.85 10.75-32.75L10.75-32.75 10.45-16.6Q12.4-16.55 14.2-16.75L14.2-16.75Q18.3-17.05 20.25-18L20.25-18ZM34.15-33.4L35.4-29.25Q36.45-25.95 37.85-22.75L37.85-22.75Q38.5-21.25 39.25-18.95L39.25-18.95Q40.05-16.55 40.05-16.55L40.05-16.55 40.45-17.8 41.2-19.95Q41.7-21.45 42.67-24.03 43.65-26.6 44-27.3L44-27.3Q45.4-31.35 45.8-33.05L45.8-33.05Q46.05-34.05 46.45-34.3 46.85-34.55 47.22-34.52 47.6-34.5 47.7-34.5L47.7-34.5 50.4-34.55Q51.65-34.55 52.55-34.45L52.55-34.45Q53.6-34.3 53.6-33.95L53.6-33.95Q53.6-33.9 53.5-33.5L53.5-33.5Q53.4-33.25 53.27-32.88 53.15-32.5 53-32.05L53-32.05Q51.8-28.5 51.45-27.7L51.45-27.7Q50.8-25.8 49.25-22L49.25-22 47.15-16.5Q46.05-13.8 44.35-9.5 42.65-5.2 42.5-4.6L42.5-4.6Q42.3-4 42.07-2.68 41.85-1.35 41.75-0.95L41.75-0.95Q41.6-0.35 41.42-0.13 41.25 0.1 40.95 0.05L40.95 0.05 38 0.1 34.05 0.15Q33.4 0.15 33.4-0.15L33.4-0.15Q33.4-0.3 33.47-0.43 33.55-0.55 33.6-0.7L33.6-0.7 35.4-5.55Q35.55-6.35 36.15-7.7L36.15-7.7Q36.3-8.1 36.45-8.47 36.6-8.85 36.7-9.25L36.7-9.25Q36.8-9.55 37-9.95 37.2-10.35 37.25-10.63 37.3-10.9 37.2-11.15L37.2-11.15Q37.2-11.15 36.65-12.7L36.65-12.7Q35.95-14.9 35.7-15.5L35.7-15.5Q35.4-16.25 34.9-17.95L34.9-17.95Q34.55-19.1 34.25-20L34.25-20Q33.85-21 32.45-25.05 31.05-29.1 30.4-31.2L30.4-31.2Q30.1-32.1 29.8-32.75L29.8-32.75Q29.45-33.55 29.45-33.85L29.45-33.85Q29.45-34.2 29.82-34.33 30.2-34.45 30.95-34.5L30.95-34.5Q31.7-34.55 33.45-34.45L33.45-34.45Q33.85-34.4 33.95-34.25 34.05-34.1 34.05-33.88 34.05-33.65 34.15-33.4L34.15-33.4ZM67.6-35.85Q72.35-35.85 75.42-33.98 78.5-32.1 80.2-30.4L80.2-30.4Q80.4-30.2 80.4-29.95L80.4-29.95Q80.4-29.8 80.27-29.58 80.15-29.35 80.1-29.25L80.1-29.25Q79.85-28.9 79.27-28.03 78.7-27.15 78.35-26.75L78.35-26.75Q78.2-26.55 78.02-26.33 77.85-26.1 77.72-26 77.6-25.9 77.35-25.9L77.35-25.9Q77.25-25.9 76.87-26.23 76.5-26.55 76.15-26.8L76.15-26.8Q74.15-28.55 72.25-29.8 70.35-31.05 68.6-31.05L68.6-31.05Q67.2-31.05 66.3-30.43 65.4-29.8 65.4-27.6L65.4-27.6Q65.4-25.45 67-24.25 68.6-23.05 71.25-21.95L71.25-21.95Q71.5-21.85 74.17-20.7 76.85-19.55 78.92-16.3 81-13.05 81-8.55L81-8.55Q81-3.75 77.4-1.35 73.8 1.05 67.45 1.05L67.45 1.05Q60.25 1.05 58.3-1.73 56.35-4.5 56.25-4.6L56.25-4.6Q56.05-4.85 56.05-5.1L56.05-5.1Q56.05-5.25 56.45-5.75L56.45-5.75Q57.1-6.65 58.35-7.9L58.35-7.9Q58.55-8.1 58.75-8.1L58.75-8.1Q59-8.1 59.3-7.73 59.6-7.35 59.8-7.15L59.8-7.15Q62.75-4.2 66.5-4.2L66.5-4.2Q68.4-4.2 69.8-4.93 71.2-5.65 71.2-7.65L71.2-7.65Q71.2-11.1 65.75-15L65.75-15Q64.85-15.6 64.05-16L64.05-16Q61.95-17.15 60.45-18.25 58.95-19.35 57.8-21.15 56.65-22.95 56.65-25.35L56.65-25.35Q56.65-28.35 58.52-30.75 60.4-33.15 63.02-34.5 65.65-35.85 67.6-35.85L67.6-35.85ZM111.49-1Q111.74-0.5 111.74-0.35L111.74-0.35Q111.74 0.05 110.84 0.05L110.84 0.05 107.24 0.05Q107.04 0.05 106.84-0.3 106.64-0.65 106.49-1 106.34-1.35 106.24-1.6L106.24-1.6Q105.99-2.1 105.32-3.9 104.64-5.7 104.29-6.75L104.29-6.75Q104.14-7.25 103.69-8.22 103.24-9.2 103.04-9.6L103.04-9.6Q102.84-10.2 102.67-10.4 102.49-10.6 102.14-10.6L102.14-10.6Q101.79-10.6 101.27-10.55 100.74-10.5 100.14-10.45L100.14-10.45Q99.74-10.35 97.64-10.35L97.64-10.35Q96.19-10.35 94.79-10.25L94.79-10.25Q94.34-10.2 93.19-10.2L93.19-10.2 90.54-10.25Q90.29-10.25 90.17-10.05 90.04-9.85 89.99-9.58 89.94-9.3 89.89-9.15L89.89-9.15 89.59-7.9Q89.44-7.2 89.22-6.28 88.99-5.35 88.84-4.55L88.84-4.55 88.29-2.4 87.89-0.95Q87.74-0.35 87.62-0.18 87.49 0 87.24 0L87.24 0 84.29 0Q84.04 0 84.04-0.2L84.04-0.2Q84.04-0.3 84.24-0.9L84.24-0.9Q84.64-1.85 84.94-2.8L84.94-2.8Q86.79-9 87.14-10.9L87.14-10.9Q87.59-13.4 88.99-17.35L88.99-17.35Q89.44-19.05 89.84-20.45L89.84-20.45Q89.99-21.15 90.29-22.15L90.29-22.15Q91.24-25.65 92.19-28.7L92.19-28.7 93.44-32.7Q93.84-34.25 94.44-35.9L94.44-35.9Q94.74-36.65 95.14-36.25L95.14-36.25Q95.44-36.05 95.59-35.55 95.74-35.05 95.79-34.85L95.79-34.85Q95.94-34.25 98.44-28.85L98.44-28.85Q99.44-26.8 100.59-23.5L100.59-23.5Q101.09-22.05 103.34-17.25L103.34-17.25Q104.49-14.9 104.84-14L104.84-14Q105.64-12.25 109.14-5.5L109.14-5.5 109.74-4.25Q110.89-1.7 111.49-1L111.49-1ZM98.39-17.5Q98.74-17.55 98.99-17.55 99.24-17.55 99.39-17.6 99.54-17.65 99.54-17.75L99.54-17.75Q99.54-17.85 99.39-18.15L99.39-18.15Q99.14-18.6 98.24-20.68 97.34-22.75 96.99-23.8L96.99-23.8Q96.49-25 96.22-25.8 95.94-26.6 95.79-26.9L95.79-26.9Q95.69-27.15 95.57-27.4 95.44-27.65 95.34-27.8 95.24-27.95 95.14-27.95L95.14-27.95Q94.99-27.95 94.82-27.2 94.64-26.45 94.54-26.05L94.54-26.05Q93.64-23.15 93.24-21.65L93.24-21.65Q93.04-20.9 92.67-19.83 92.29-18.75 92.14-18.35L92.14-18.35Q91.99-17.85 91.99-17.55L91.99-17.55Q91.99-17.25 92.44-17.25L92.44-17.25Q93.49-17.25 95.67-17.32 97.84-17.4 98.39-17.5L98.39-17.5ZM116.84-35.25Q117.49-35.2 118.12-35.23 118.74-35.25 119.19-35.25L119.19-35.25Q120.29-35.25 120.79-35.2L120.79-35.2Q121.39-35.15 121.64-34.95 121.89-34.75 121.89-34.4L121.89-34.4Q121.89-34.15 121.84-33.85 121.79-33.55 121.74-33.3L121.74-33.3Q121.19-29.05 121.14-24.55L121.14-24.55Q121.09-23.25 121.09-20.55L121.09-20.55 121.14-14.5Q121.19-13.75 121.19-12.95L121.19-12.95 121.24-10.95Q121.34-8.35 121.34-7.1L121.34-7.1Q121.34-6.15 121.29-5.95L121.29-5.95Q121.24-5.75 121.24-4.8L121.24-4.8 121.29-2.05Q121.34-1.45 121.34-0.55L121.34-0.55Q121.39 0.1 120.97 0.28 120.54 0.45 119.84 0.4L119.84 0.4 115.29 0.4Q114.54 0.45 114.34 0.08 114.14-0.3 114.09-1.15L114.09-1.15Q113.99-1.5 114.19-3L114.19-3Q114.39-4.4 114.39-5.4L114.39-5.4Q114.39-5.75 114.74-12.15L114.74-12.15Q115.04-16.85 115.04-17.3L115.04-17.3 115.14-22.2 115.24-26.75 115.34-29.45 115.44-31.25 115.44-33.35Q115.44-35.3 116.44-35.3L116.44-35.3Q116.69-35.3 116.84-35.25L116.84-35.25ZM131.84-34.6L131.74-31.7Q131.49-24.7 131.49-24.1L131.49-24.1 131.44-16.95Q131.44-16 131.49-15.3L131.49-15.3 131.54-12.3Q131.54-11.25 131.49-11L131.49-11Q131.44-10.7 131.46-10.45 131.49-10.2 131.49-10.1L131.49-10.1Q131.49-9.9 131.54-9.85L131.54-9.85 132.74-9.75Q134.34-9.65 135.39-9.7L135.39-9.7 144.64-9.8Q144.64-9.8 149.89-9.65L149.89-9.65 152.24-9.6Q152.79-9.55 152.79-9.3L152.79-9.3Q152.79-9.2 152.74-9.05 152.69-8.9 152.69-8.75L152.69-8.75 152.69-6.45Q152.69-5.55 152.99-2.65L152.99-2.65 153.19-0.55 153.24-0.3Q153.24-0.05 152.99 0.03 152.74 0.1 152.09 0.1L152.09 0.1 148.44 0.05 142.24-0.05Q140.99-0.05 138.74 0.1L138.74 0.1Q137.74 0.15 136.51 0.2 135.29 0.25 134.09 0.25L134.09 0.25 133.24 0.2Q132.94 0.15 132.09 0.15L132.09 0.15 129.84 0.2Q129.24 0.25 128.29 0.25L128.29 0.25Q127.64 0.25 127.51 0.08 127.39-0.1 127.41-0.45 127.44-0.8 127.44-1.05L127.44-1.05Q127.44-2.15 127.59-4.85L127.59-4.85 127.74-10 127.64-12.35Q127.59-13.05 127.54-14.03 127.49-15 127.49-16.05L127.49-16.05Q127.49-14.35 127.79-19.48 128.09-24.6 128.09-25.8L128.09-25.8 128.04-31.45 127.94-34.65 127.94-34.7Q127.94-35.1 128.49-35.1L128.49-35.1 129.19-35.05Q129.44-35.05 129.84-35.02 130.24-35 131.09-35L131.09-35 131.54-35Q131.84-35 131.84-34.6L131.84-34.6ZM157.94-35.25Q158.59-35.2 159.21-35.23 159.84-35.25 160.29-35.25L160.29-35.25Q161.39-35.25 161.89-35.2L161.89-35.2Q162.49-35.15 162.74-34.95 162.99-34.75 162.99-34.4L162.99-34.4Q162.99-34.15 162.94-33.85 162.89-33.55 162.84-33.3L162.84-33.3Q162.29-29.05 162.24-24.55L162.24-24.55Q162.19-23.25 162.19-20.55L162.19-20.55 162.24-14.5Q162.29-13.75 162.29-12.95L162.29-12.95 162.34-10.95Q162.44-8.35 162.44-7.1L162.44-7.1Q162.44-6.15 162.39-5.95L162.39-5.95Q162.34-5.75 162.34-4.8L162.34-4.8 162.39-2.05Q162.44-1.45 162.44-0.55L162.44-0.55Q162.49 0.1 162.06 0.28 161.64 0.45 160.94 0.4L160.94 0.4 156.39 0.4Q155.64 0.45 155.44 0.08 155.24-0.3 155.19-1.15L155.19-1.15Q155.09-1.5 155.29-3L155.29-3Q155.49-4.4 155.49-5.4L155.49-5.4Q155.49-5.75 155.84-12.15L155.84-12.15Q156.14-16.85 156.14-17.3L156.14-17.3 156.24-22.2 156.34-26.75 156.44-29.45 156.54-31.25 156.54-33.35Q156.54-35.3 157.54-35.3L157.54-35.3Q157.79-35.3 157.94-35.25L157.94-35.25ZM182.58-31.15Q182.58-34.25 182.63-35L182.63-35Q182.63-35.95 183.28-36.15 183.93-36.35 185.18-36.35L185.18-36.35Q186.28-36.35 188.01-36.48 189.73-36.6 190.68-36.75L190.68-36.75Q191.38-36.8 191.68-36.52 191.98-36.25 191.98-35.6L191.98-35.6Q191.98-35.4 191.88-34.5L191.88-34.5Q191.78-33.75 191.78-24.55L191.78-24.55 191.78-13.25Q191.78-10.7 191.86-7.63 191.93-4.55 192.03-2.1 192.13 0.35 192.13-0.75L192.13-0.75Q192.13 0.05 191.33 0.05L191.33 0.05Q190.98 0.05 190.73 0L190.73 0Q190.53-0.05 189.93-0.05L189.93-0.05Q189.33-0.05 188.03 0.05L188.03 0.05Q186.63 0.15 186.08 0.15L186.08 0.15Q185.13 0.15 184.66-0.25 184.18-0.65 183.68-1.7L183.68-1.7 182.83-3.4Q181.33-6.75 180.18-8.65L180.18-8.65Q179.53-9.75 176.88-14.7L176.88-14.7 174.68-18.85 174.68-16.95 174.68-15.8Q174.68-15.4 174.66-14.8 174.63-14.2 174.68-13.45L174.68-13.45Q174.68-10.85 174.76-6.65 174.83-2.45 174.98-1.6L174.98-1.6Q175.03-1.35 175.03-1L175.03-1Q175.03-0.5 174.83-0.38 174.63-0.25 174.08-0.3L174.08-0.3Q173.28-0.3 172.21-0.2 171.13-0.1 170.18 0L170.18 0Q169.43 0.1 169.21-0.25 168.98-0.6 169.03-1.8L169.03-1.8Q169.03-3.6 168.88-8.15L168.88-8.15Q168.68-12.9 168.63-16.4L168.63-16.4Q168.63-19.95 168.78-23.6L168.78-23.6Q168.88-28.2 168.88-29.9L168.88-29.9Q168.88-32.2 168.73-33.25L168.73-33.25Q168.63-34.15 168.63-34.4L168.63-34.4Q168.63-35.3 168.93-35.63 169.23-35.95 169.73-35.95L169.73-35.95Q169.98-35.95 170.73-35.93 171.48-35.9 172.88-36.25L172.88-36.25Q173.43-36.35 173.98-36.35L173.98-36.35Q174.28-36.35 174.83-36.3 175.38-36.25 176.28-36.25L176.28-36.25Q177.43-36.25 178.21-35.35 178.98-34.45 179.88-32.8L179.88-32.8 180.38-31.9Q180.98-30.8 181.83-29.55L181.83-29.55 182.58-28.4 182.58-31.15ZM208.98-35.4Q212.38-35.4 214.16-34.25 215.93-33.1 216.63-32.13 217.33-31.15 217.53-30.95L217.53-30.95Q217.93-30.5 217.93-30L217.93-30Q217.93-29.4 217.48-28.95L217.48-28.95Q217.03-28.5 216.36-27.95 215.68-27.4 215.13-27L215.13-27Q214.88-26.85 214.68-26.85L214.68-26.85Q214.23-26.85 213.78-27.3L213.78-27.3Q213.68-27.4 212.33-28.98 210.98-30.55 208.28-30.55L208.28-30.55Q206.23-30.55 204.73-28.38 203.23-26.2 202.46-23.13 201.68-20.05 201.68-17.4L201.68-17.4Q201.68-14.65 202.48-11.55 203.28-8.45 205.06-6.25 206.83-4.05 209.53-4.05L209.53-4.05Q213.13-4.05 215.03-6.85L215.03-6.85Q215.83-8.15 216.08-9.7L216.08-9.7 214.63-9.7 212.38-9.75 207.33-9.8Q206.48-9.8 206.48-10.6L206.48-10.6 206.48-12.55Q206.48-13.05 206.63-13.18 206.78-13.3 207.03-13.3L207.03-13.3 209.33-13.3 219.58-13.55Q220.03-13.55 220.26-13.1 220.48-12.65 220.43-11.9L220.43-11.9Q220.43-10.15 219.78-7.38 219.13-4.6 216.58-1.98 214.03 0.65 208.98 0.65L208.98 0.65Q205.23 0.65 202.56-2.2 199.88-5.05 198.56-9.53 197.23-14 197.23-18.7L197.23-18.7Q197.23-23.1 198.86-26.95 200.48-30.8 203.21-33.1 205.93-35.4 208.98-35.4L208.98-35.4ZM233.83-26.05Q234.08-24.45 235.18-19.05L235.18-19.05 236.28-14.1 236.93-17.05Q237.38-19.05 237.73-21.6L237.73-21.6Q237.78-22.3 238.2-24.08 238.63-25.85 238.83-26.75L238.83-26.75Q240.33-32.3 240.23-33.65L240.23-33.65Q240.13-34.95 240.48-35.25 240.83-35.55 241.3-35.52 241.78-35.5 241.93-35.5L241.93-35.5Q246.68-35.5 247.88-35.35L247.88-35.35Q248.43-35.3 248.63-35.15 248.83-35 248.83-34.75L248.83-34.75Q248.83-34.5 248.68-33.95L248.68-33.95Q248.43-33.3 247.73-30.15L247.73-30.15 247.48-29.05Q245.63-19.6 244.58-15.85L244.58-15.85Q243.78-12.65 242.83-6.35L242.83-6.35Q241.98-1.5 241.88-1.25L241.88-1.25Q241.73-0.75 241.58-0.58 241.43-0.4 241.13-0.4L241.13-0.4 240.33-0.45 236.98-0.25Q233.48-0.05 232.78-0.05L232.78-0.05Q231.98-0.05 231.75-0.48 231.53-0.9 231.38-1.95L231.38-1.95Q230.78-4.45 227.78-15.7L227.78-15.7Q227.38-17.25 225.03-27.5L225.03-27.5 223.38-34.5Q223.28-34.9 223.28-35L223.28-35Q223.28-35.4 223.83-35.4L223.83-35.4Q224.13-35.4 224.53-35.33 224.93-35.25 225.38-35.25L225.38-35.25 227.88-35.35 230.93-35.45Q231.83-35.55 232.13-35.18 232.43-34.8 232.63-33.9L232.63-33.9Q232.78-33.25 233.48-28.5L233.48-28.5 233.83-26.05ZM262.98-32.5L262.88-29.8Q262.68-25.7 262.68-23.65L262.68-23.65 262.78-16.1Q262.83-14.3 262.83-12.4L262.83-12.4 262.73-6.95 262.68-5.95 262.73-4.55 262.83-2.8 269.98-2.55 275.93-2.5 276.03-2.5Q276.33-2.5 276.38-2.4 276.43-2.3 276.4-2.13 276.38-1.95 276.38-1.85L276.38-1.85Q276.33-1.65 276.4-1.1 276.48-0.55 276.48-0.1L276.48-0.1Q276.48 0.25 276.23 0.35 275.98 0.45 275.6 0.43 275.23 0.4 275.03 0.4L275.03 0.4 272.38 0.25Q268.88-0.05 267.43-0.05L267.43-0.05Q265.83-0.05 259.33 0.25L259.33 0.25 254.78 0.4Q253.68 0.4 253.68-0.6L253.68-0.6 253.68-4.5 253.88-21.25Q253.88-23.15 253.63-28.15L253.63-28.15 253.43-34.3Q253.43-35.15 254.08-35.15L254.08-35.15Q254.33-35.15 254.93-35 255.53-34.85 255.88-34.85L255.88-34.85Q257.28-34.65 259.23-34.65L259.23-34.65Q260.58-34.65 261.78-34.8L261.78-34.8Q262.53-34.9 262.83-34.7 263.13-34.5 263.13-34.05L263.13-34.05Q263.13-33.7 263.05-33.33 262.98-32.95 262.98-32.5L262.98-32.5ZM285.82-32.6Q286.07-31.25 287-28.85 287.92-26.45 288.77-24.65L288.77-24.65Q289.47-23.45 290.65-20.78 291.82-18.1 292.32-16.55L292.32-16.55Q292.62-15.75 293.17-14.55L293.17-14.55 293.92-12.75 294.97-10.4Q296.42-13.25 297.07-14.55L297.07-14.55 300.32-21.05 302.57-25.55Q304.32-29.15 304.92-30.2L304.92-30.2Q305.87-32.15 306.92-33.83 307.97-35.5 308.42-35.5L308.42-35.5Q308.82-35.5 308.82-34.85L308.82-34.85Q308.82-34.25 308.57-33.25L308.57-33.25 308.37-32Q308.17-30.65 308.17-20L308.17-20Q308.17-17.65 308.05-14.3 307.92-10.95 307.82-9.85L307.82-9.85Q307.72-8.55 307.72-6L307.72-6 307.77-1.15 307.77-0.9Q307.77-0.3 307.47-0.4L307.47-0.4 307.37-0.4Q307.12-0.4 306.8-0.35 306.47-0.3 306.12-0.3L306.12-0.3Q305.92-0.35 305.85-0.55 305.77-0.75 305.77-1.25L305.77-1.25 305.77-4.2Q305.77-9.3 305.87-10.2L305.87-10.2Q305.97-11.25 306.1-14.1 306.22-16.95 306.22-18.7L306.22-18.7Q306.17-19.15 306.27-21.5L306.27-21.5 306.32-23.3 306.42-26.9Q306.07-26.4 305.82-25.85L305.82-25.85Q305.32-25 304.87-24L304.87-24 304.37-23Q303.52-21.35 302.42-19.13 301.32-16.9 300.52-15.35L300.52-15.35Q299.62-13.55 298.25-10.73 296.87-7.9 296.12-6.25L296.12-6.25Q294.82-3.2 294.62-3.2L294.62-3.2Q294.47-3.2 294.17-3.7 293.87-4.2 293.77-4.35L293.77-4.35Q293.42-4.9 292.67-6.68 291.92-8.45 291.47-9.8L291.47-9.8Q291.17-10.7 288.87-14.85L288.87-14.85Q287.07-18.3 287.02-18.45L287.02-18.45Q286.52-19.45 285.67-21.8L285.67-21.8Q285.12-23.05 284.82-24L284.82-24 284.72-21.8 284.62-18.4 284.52-8.55 284.47-0.75Q284.47-0.3 284.22-0.2 283.97-0.1 283.62-0.13 283.27-0.15 283.07-0.15L283.07-0.15 281.97-0.1Q281.07 0 280.67 0L280.67 0Q279.92 0 279.8-0.33 279.67-0.65 279.72-1.7L279.72-1.7Q279.72-3.35 279.67-4.85L279.67-4.85 279.57-11Q279.57-12.4 279.67-13.93 279.77-15.45 279.82-16.65L279.82-16.65Q280.07-20.25 280.07-21.7L280.07-21.7 280.17-31.1 280.12-33.8Q280.12-35.55 280.37-35.8L280.37-35.8Q280.52-35.95 280.72-35.95L280.72-35.95Q280.87-35.95 281.17-35.85 281.47-35.75 281.92-35.8L281.92-35.8Q282.37-35.85 283.17-35.85L283.17-35.85Q284.12-35.85 284.57-35.75L284.57-35.75Q285.02-35.6 285.22-35.02 285.42-34.45 285.57-33.73 285.72-33 285.82-32.6L285.82-32.6Z" fill="#398378" data-fill-palette-color="primary"></path></g></svg></g></svg></g></svg></g></svg></g><g transform="matrix(1,0,0,1,133.72057441126105,0)"><svg viewBox="0 0 128.0788511774779 135.18241225737466" height="135.18241225737466" width="128.0788511774779"><g><svg xmlns="http://www.w3.org/2000/svg" xmlns:xlink="http://www.w3.org/1999/xlink" version="1.1" x="0" y="0" viewBox="7.983999999999999 3.3299999999999983 84.093 88.75700000000002" enable-background="new 0 0 100 100" xml:space="preserve" height="135.18241225737466" width="128.0788511774779" class="icon-icon-0" data-fill-palette-color="accent" id="icon-0"><path d="M85.24 89.117l-11.605-4.208c-4.053 0.044-11.743 4.087-11.743 4.087l-11.959-4.087c-1.502 0.017-7.081 2.032-9.004 2.737-1.787 0.798-2.684 1.293-2.684 1.293l-6.811-2.326-5.147-1.76c-4.051 0.043-11.504 3.958-11.58 3.998l-6.723 3.236 35.531-0.092 48.562-0.066L85.24 89.117z" fill="#398378" data-fill-palette-color="accent"></path><path d="M84.321 78.217c-3.906 0.006-62.566-3.557-65.818-3.547-2.283 0.008 4.505 6.084 8.723 8.654l10.852 3.571c0.381-0.196 1.01-0.354 2.278-0.928 2.081-0.772 7.824-3.038 9.534-3.038l11.929 4.117c1.175-0.608 7.632-4.051 11.584-4.051l7.786 2.57C83.51 82.451 86.301 78.214 84.321 78.217z" fill="#398378" data-fill-palette-color="accent"></path><path d="M11.5 70.5l43.122 1.748c0 0-2.67-16.206-1.544-31.965 1.047-14.658 6.12-36.953 6.12-36.953L11.5 70.5z" fill="#398378" data-fill-palette-color="accent"></path><polygon points="60.878,11.67 60.802,11.854 57.996,72.029 92,74 " fill="#398378" data-fill-palette-color="accent"></polygon></svg></g></svg></g><g></g></svg></g><defs></defs></svg><rect width="395.52" height="195.6367304243235" fill="none" stroke="none" visibility="hidden"></rect></g></svg></g></svg>